<?xml version="1.0" encoding="UTF-8"?>
<svg width="499px" height="858px" viewBox="0 0 499 858" version="1.1" xmlns="http://www.w3.org/2000/svg" xmlns:xlink="http://www.w3.org/1999/xlink">
    <!-- Generator: Sketch 54.1 (76490) - https://sketchapp.com -->
    <title>Group 3</title>
    <desc>Created with Sketch.</desc>
    <g id="Page-1" stroke="none" stroke-width="1" fill="none" fill-rule="evenodd">
        <g id="Extra-large:-Desktops---12-col-Copy" transform="translate(-895.000000, -129.000000)">
            <g id="hero" transform="translate(-166.000000, 0.000000)">
                <g id="Group-3" transform="translate(991.000000, 80.000000)">
                    <g id="stripes" transform="translate(69.000000, 594.238917)" fill="#ECBBB0">
                        <path d="M87.0933299,30.4361568 C92.9035619,34.1665005 106.819054,41.1605374 135.081053,59.305591 C163.343051,77.4506446 188.304769,91.0470346 195.07805,94.7129824 C201.851331,98.3789303 198.907103,106.7694 184.83623,101.399986 C170.765357,96.0305712 152.489432,84.6679355 124.317098,66.5804492 C96.1447639,48.4929629 78.8479706,43.3991447 75.1015314,35.9656602 C71.3550921,28.5321757 81.283098,26.705813 87.0933299,30.4361568 Z" id="Rectangle-Copy" transform="translate(136.419928, 65.852986) rotate(-14.000000) translate(-136.419928, -65.852986) "></path>
                        <path d="M113.044201,16.1980024 C118.854433,19.9283461 132.769925,26.922383 161.031924,45.0674366 C189.293923,63.2124902 214.25564,76.8088802 221.028921,80.474828 C227.802202,84.1407759 224.857974,92.5312458 210.787101,87.1618313 C196.716228,81.7924169 178.440303,70.4297811 150.267969,52.3422948 C122.095635,34.2548085 104.798842,29.1609903 101.052403,21.7275058 C97.3059633,14.2940213 107.233969,12.4676586 113.044201,16.1980024 Z" id="Rectangle-Copy-9" transform="translate(162.370799, 51.614832) rotate(-14.000000) translate(-162.370799, -51.614832) "></path>
                        <path d="M63.6995856,44.8741132 C69.5098116,48.6798268 83.4252924,55.8151796 111.687262,74.3268453 C139.949232,92.8385109 164.910927,106.709615 171.684202,110.449634 C178.457478,114.189652 175.513236,122.749622 161.442372,117.271712 C147.371508,111.793802 129.095601,100.201588 100.923296,81.748653 C72.7509907,63.2957178 55.4542055,58.0989665 51.7077782,50.5153046 C47.9613509,42.9316426 57.8893596,41.0683997 63.6995856,44.8741132 Z" id="Rectangle-Copy-2" transform="translate(113.026126, 81.006514) rotate(-14.000000) translate(-113.026126, -81.006514) "></path>
                        <path d="M20.3487547,129.460381 C26.1589807,133.266094 40.0744615,140.401447 68.3364311,158.913113 C96.5984008,177.424778 121.560096,191.295883 128.333372,195.035901 C135.106647,198.775919 132.162405,207.335889 118.091541,201.857979 C104.020677,196.380069 85.7447701,184.787856 57.5724649,166.33492 C29.4001597,147.881985 12.1033746,142.685234 8.35694724,135.101572 C4.61051992,127.51791 14.5385287,125.654667 20.3487547,129.460381 Z" id="Rectangle-Copy-6" transform="translate(69.675295, 165.592781) rotate(-14.000000) translate(-69.675295, -165.592781) "></path>
                        <path d="M39.9374016,64.7789326 C45.7476276,68.5846462 59.6631084,75.719999 87.925078,94.2316647 C116.187048,112.74333 141.148743,126.614435 147.922018,130.354453 C154.695294,134.094471 151.751052,142.654441 137.680188,137.176531 C123.609324,131.698621 105.333417,120.106408 77.1611118,101.653472 C48.9888066,83.2005372 31.6920215,78.0037859 27.9455941,70.420124 C24.1991668,62.8364621 34.1271756,60.9732191 39.9374016,64.7789326 Z" id="Rectangle-Copy-3" transform="translate(89.263942, 100.911333) rotate(-14.000000) translate(-89.263942, -100.911333) "></path>
                        <path d="M29.2837656,155.964925 C35.0939916,159.770639 49.0094725,166.905991 77.2714421,185.417657 C105.533412,203.929323 130.495107,217.800427 137.268383,221.540446 C144.041658,225.280464 141.097416,233.840433 127.026552,228.362523 C112.955688,222.884613 94.679781,211.2924 66.5074759,192.839465 C38.3351707,174.38653 21.0383855,169.189778 17.2919582,161.606116 C13.5455309,154.022455 23.4735397,152.159212 29.2837656,155.964925 Z" id="Rectangle-Copy-7" transform="translate(78.610306, 192.097326) rotate(-14.000000) translate(-78.610306, -192.097326) "></path>
                        <path d="M23.1175203,84.505394 C28.9277463,88.3111076 42.8432271,95.4464604 71.1051967,113.958126 C99.3671664,132.469792 124.328862,146.340896 131.102137,150.080915 C137.875412,153.820933 134.931171,162.380902 120.860307,156.902992 C106.789442,151.425082 88.5135357,139.832869 60.3412305,121.379934 C32.1689253,102.926999 14.8721402,97.7302473 11.1257128,90.1465854 C7.37928553,82.5629235 17.3072943,80.6996805 23.1175203,84.505394 Z" id="Rectangle-Copy-4" transform="translate(72.444061, 120.637795) rotate(-14.000000) translate(-72.444061, -120.637795) "></path>
                        <path d="M37.672096,180.276112 C43.4823219,184.081826 57.3978028,191.217178 85.6597724,209.728844 C113.921742,228.24051 138.883438,242.111614 145.656713,245.851633 C152.429988,249.591651 149.485747,258.15162 135.414882,252.67371 C121.344018,247.1958 103.068111,235.603587 74.8958062,217.150652 C46.723501,198.697717 29.4267158,193.500965 25.6802885,185.917303 C21.9338612,178.333641 31.86187,176.470398 37.672096,180.276112 Z" id="Rectangle-Copy-8" transform="translate(86.998637, 216.408513) rotate(-14.000000) translate(-86.998637, -216.408513) "></path>
                        <path d="M21.4597972,105.886209 C27.2700231,109.691922 41.185504,116.827275 69.4474736,135.338941 C97.7094432,153.850606 122.671139,167.721711 129.444414,171.461729 C136.217689,175.201747 133.273448,183.761717 119.202583,178.283807 C105.131719,172.805897 86.8558126,161.213684 58.6835074,142.760748 C30.5112022,124.307813 13.214417,119.111062 9.46798972,111.5274 C5.7215624,103.943738 15.6495712,102.080495 21.4597972,105.886209 Z" id="Rectangle-Copy-5" transform="translate(70.786338, 142.018609) rotate(-14.000000) translate(-70.786338, -142.018609) "></path>
                    </g>
                    <path d="M202.598704,118.573789 C258.321257,69.8494438 332.097008,43.4339867 426.73747,74.1845368 C521.377931,104.935087 458.692794,252.811082 493.831701,319.744847 C528.970608,386.678612 553.194741,377.462204 543.029004,440.529659 C532.863267,503.597114 444.84571,502.31335 360.3203,521.12255 C275.794889,539.931749 215.141959,619.187543 155.166969,566.701303 C95.1919788,514.215064 66.0235083,478.608129 69.4917729,402.647502 C72.9600376,326.686874 141.514001,323.689663 157.105646,275.703516 C172.69729,227.717369 146.876152,167.298134 202.598704,118.573789 Z" id="teal-blob" fill="#C3D7D1" transform="translate(307.290014, 322.692044) rotate(-18.000000) translate(-307.290014, -322.692044) "></path>
                    <path d="M286.852075,906.238917 C186.918434,906.238917 154.794016,872.455394 129.217025,787.500595 C103.640033,702.545796 178.202709,673.239193 220.708266,599.027148 C263.213823,524.815103 185.888383,377.810461 249.962165,337.514284 C314.035948,297.218107 359.730253,339.158762 424.079649,382.937276 C488.429045,426.715791 558.1893,513.564581 542.856429,593.955694 C527.523559,674.346808 484.258669,732.305042 456.037217,758.677381 C427.815764,785.04972 386.785716,906.238917 286.852075,906.238917 Z" id="green-blob" fill="#5D9595"></path>
                    <path d="M167.430095,302.691431 C175.618497,302.691431 206.020469,333.421933 245.85031,333.421933 C270.304912,333.421933 296.605038,320.636526 324.750689,295.065712 L324.750691,295.065714 C328.020884,292.094686 333.080393,292.337208 336.051421,295.607401 C337.94298,297.68943 338.602058,300.611923 337.787218,303.304297 C336.278446,308.28954 331.833851,313.662251 324.453431,319.422429 C301.151945,337.608482 284.866372,353.093114 245.162896,353.093114 C205.45942,353.093114 174.44841,328.008015 164.035214,321.035486 C153.622019,314.062956 159.241692,302.691431 167.430095,302.691431 Z" id="yellow-curve" fill="#F9CB6B" transform="translate(248.368756, 321.593114) rotate(-211.000000) translate(-248.368756, -321.593114) "></path>
                </g>
            </g>
        </g>
    </g>
</svg>