<?xml version="1.0" encoding="UTF-8"?>
<svg width="714px" height="479px" viewBox="0 0 714 479" version="1.1" xmlns="http://www.w3.org/2000/svg" xmlns:xlink="http://www.w3.org/1999/xlink">
    <!-- Generator: Sketch 54.1 (76490) - https://sketchapp.com -->
    <title>Group 11</title>
    <desc>Created with Sketch.</desc>
    <g id="Page-1" stroke="none" stroke-width="1" fill="none" fill-rule="evenodd">
        <g id="Extra-large:-Desktops---12-col-Copy" transform="translate(-65.000000, -3845.000000)">
            <g id="trailguides" transform="translate(11.000000, 3788.000000)">
                <g id="Group-5">
                    <g id="Group-11" transform="translate(0.000000, 41.216878)">
                        <path d="M488.291014,309.190759 C377.56442,275.742672 365.806711,329.678743 309.801836,300.704391 C253.796962,271.730039 309.664179,198.617787 352.169736,159.951107 C394.675294,121.284427 402.542911,46.4754551 466.616693,25.4799497 C530.690476,4.48444419 576.384781,26.3367716 640.734177,49.146678 C705.083573,71.9565844 774.843828,117.207384 759.510957,159.093542 C744.178087,200.979701 700.913197,231.177663 672.691745,244.918435 C644.470292,258.659207 599.017608,342.638846 488.291014,309.190759 Z" id="yellow-blob" fill="#F9CB6B" transform="translate(523.937948, 167.000000) rotate(184.000000) translate(-523.937948, -167.000000) "></path>
                        <path d="M143.460365,173.476084 C173.249301,159.50963 198.934004,151.765846 259.255603,173.476084 C319.577203,195.186322 308.895253,264.992971 331.64142,316.468592 C354.387587,367.944212 370.068388,360.856305 363.487888,409.358528 C356.907389,457.860751 299.931738,456.873468 245.216629,471.338742 C190.501519,485.804015 167.869915,511.703448 129.046819,471.338742 C90.2237227,430.974036 77.10928,385.72467 75.0834229,360.856305 C73.0575658,335.98794 108.552907,314.491863 113.671429,282.598469 C118.78995,250.705074 111.538935,227.949941 113.671429,216.247218 C115.803922,204.544495 113.671429,187.442538 143.460365,173.476084 Z" id="pink-blob" fill="#ECBBB0" transform="translate(220.000000, 326.443276) rotate(-43.000000) translate(-220.000000, -326.443276) "></path>
                    </g>
                </g>
            </g>
        </g>
    </g>
</svg>