<?xml version="1.0" encoding="UTF-8"?>
<svg width="615px" height="364px" viewBox="0 0 615 364" version="1.1" xmlns="http://www.w3.org/2000/svg" xmlns:xlink="http://www.w3.org/1999/xlink">
    <!-- Generator: Sketch 54.1 (76490) - https://sketchapp.com -->
    <title>Group 4</title>
    <desc>Created with Sketch.</desc>
    <g id="Page-1" stroke="none" stroke-width="1" fill="none" fill-rule="evenodd">
        <g id="Extra-large:-Desktops---12-col-Copy" transform="translate(-165.000000, -2200.000000)">
            <g id="visier" transform="translate(85.000000, 2155.000000)">
                <g id="Group-4">
                    <path d="M117.835054,379.356523 C91.7402191,372.242439 72.4450647,363.118143 56.8721405,313.933467 C41.2992163,264.74879 92.9006648,208.546398 119.299833,159.883913 C145.699001,111.221428 127.874203,106.575448 160.656918,94.4744309 C193.439632,82.3734135 205.200998,108.623096 244.79062,129.473174 C284.380242,150.323252 357.128056,130.263519 347.475972,180.279527 C337.823889,230.295536 373.54757,233.494138 341.667461,286.452798 C309.787352,339.411457 245.395378,316.717145 217.429897,329.406294 C189.464416,342.095444 175.250308,359.494791 165.403389,366.431439 C155.556469,373.368087 143.929888,386.470607 117.835054,379.356523 Z" id="pink-blob" fill="#ECBBB0" transform="translate(204.603698, 236.410385) scale(-1, 1) rotate(-57.000000) translate(-204.603698, -236.410385) "></path>
                    <path d="M670.047559,206.017589 C659.83868,219.982689 649.98832,229.422995 617.12677,227.454665 C584.265219,225.486334 533.563816,235.298775 510.974844,211.577334 C488.385873,187.855893 487.608313,154.976902 495.930746,127.501093 C504.253179,100.025285 528.770315,91.7352435 550.249343,72.8537747 C571.728371,53.9723058 570.482333,18.4801126 604.010558,23.1296321 C637.538783,27.7791516 643.219174,20.209311 665.926096,50.94178 C688.633019,81.6742489 661.924138,115.418661 663.083481,135.041746 C664.242824,154.66483 671.354596,167.148999 673.233337,174.624431 C675.112079,182.099863 680.256438,192.052489 670.047559,206.017589 Z" id="blue-blob" fill="#92C0EF" transform="translate(583.637377, 125.283049) scale(-1, 1) rotate(427.000000) translate(-583.637377, -125.283049) "></path>
                </g>
            </g>
        </g>
    </g>
</svg>