<?xml version="1.0" encoding="UTF-8"?>
<svg width="404px" height="616px" viewBox="0 0 404 616" version="1.1" xmlns="http://www.w3.org/2000/svg" xmlns:xlink="http://www.w3.org/1999/xlink">
    <!-- Generator: Sketch 54.1 (76490) - https://sketchapp.com -->
    <title>Group 2</title>
    <desc>Created with Sketch.</desc>
    <g id="Page-1" stroke="none" stroke-width="1" fill="none" fill-rule="evenodd">
        <g id="Extra-large:-Desktops---12-col-Copy" transform="translate(-140.000000, -192.000000)">
            <g id="hero" transform="translate(-1.000000, 0.000000)">
                <g id="Group-2" transform="translate(42.000000, 135.000000)">
                    <path d="M207.445085,47.1105864 C235.135647,32.8241505 282.185577,68.5532189 323.810854,137.749668 C365.436132,206.946117 318.104768,293.022901 347.725673,373.827572 C377.346579,454.632242 458.486535,402.241709 456.979281,501.027923 C455.974445,566.885399 391.917448,609.542758 264.80829,629 C179.998475,621.155655 125.564119,603.470319 101.505224,575.943991 C65.4168805,534.6545 90.8264009,406.893742 88.943248,381.455625 C87.0600951,356.017507 120.055095,334.02894 124.813061,301.404844 C129.571026,268.780748 122.830783,245.504278 124.813061,233.533437 C126.795338,221.562596 179.754523,61.3970223 207.445085,47.1105864 Z" id="yellow-blob" fill="#F9CB6B" transform="translate(269.500000, 336.500000) rotate(-18.000000) translate(-269.500000, -336.500000) "></path>
                    <path d="M270.0079,71.4939601 C295.071695,58.5760385 316.682272,51.4136202 367.435618,71.4939601 C418.188963,91.5743 409.201392,156.14021 428.339546,203.751295 C447.477701,251.362379 460.671202,244.806597 455.134506,289.667512 C449.59781,334.528426 401.659676,333.615264 355.623515,346.994556 C309.587354,360.373849 290.54559,384.328879 257.88064,346.994556 C225.215691,309.660234 214.18147,267.807968 212.476956,244.806597 C210.772441,221.805226 240.637487,201.922969 244.944105,172.423974 C249.250723,142.924978 243.149869,121.878188 244.944105,111.054048 C246.738341,100.229908 244.944105,84.4118817 270.0079,71.4939601 Z" id="pink-blob" fill="#ECBBB0" transform="translate(334.406765, 212.977128) rotate(27.000000) translate(-334.406765, -212.977128) "></path>
                    <g id="blue-dots" transform="translate(370.789432, 147.375283)" fill="#92C0EF">
                        <circle id="Oval-Copy-8" cx="13.5" cy="56.5" r="13.5"></circle>
                        <circle id="Oval-Copy-9" cx="45.5" cy="91.5" r="13.5"></circle>
                        <circle id="Oval-Copy-12" cx="67.5" cy="52.5" r="13.5"></circle>
                        <circle id="Oval-Copy-14" cx="40.5" cy="13.5" r="13.5"></circle>
                    </g>
                    <path d="M212.931344,672.375283 C247.244669,672.375283 242.677215,646.621271 264.734835,617.025701 C277.37074,600.071614 301.751393,581.297165 277.37074,542.586089 C267.04959,526.198389 247.244669,504.375283 212.931344,504.375283 C178.61802,504.375283 144.789432,544.035565 144.789432,581.297165 C144.789432,618.558765 178.61802,672.375283 212.931344,672.375283 Z" id="orange-blob" fill="#F28B8A"></path>
                </g>
            </g>
        </g>
    </g>
</svg>