<?xml version="1.0" encoding="UTF-8"?>
<svg width="425px" height="513px" viewBox="0 0 425 513" version="1.1" xmlns="http://www.w3.org/2000/svg" xmlns:xlink="http://www.w3.org/1999/xlink">
    <!-- Generator: Sketch 54.1 (76490) - https://sketchapp.com -->
    <title>Group 7</title>
    <desc>Created with Sketch.</desc>
    <g id="Page-1" stroke="none" stroke-width="1" fill="none" fill-rule="evenodd">
        <g id="Extra-large:-Desktops---12-col-Copy" transform="translate(-584.000000, -1306.000000)">
            <g id="wildlife" transform="translate(165.000000, 1218.000000)">
                <g id="Group-7" transform="translate(379.572974, 47.363009)">
                    <path d="M119.3286,51.6227724 C142.602123,39.6275596 162.669088,32.9767425 209.797195,51.6227724 C256.925302,70.2688024 248.579699,130.222862 266.350843,174.433154 C284.121986,218.643447 296.373094,212.555935 291.231877,254.212499 C286.090659,295.869063 241.576677,295.021127 198.828814,307.444755 C156.08095,319.868383 138.399312,342.11234 108.067573,307.444755 C77.7358339,272.77717 67.4897718,233.914351 65.9070086,212.555935 C64.3242453,191.19752 92.0560739,172.735424 96.055076,145.343499 C100.054078,117.951575 94.3890001,98.4081272 96.055076,88.3571399 C97.721152,78.3061527 96.055076,63.6179853 119.3286,51.6227724 Z" id="green-blob" fill="#C3D7D1" transform="translate(179.127546, 183.000000) rotate(140.000000) translate(-179.127546, -183.000000) "></path>
                    <path d="M379.812292,160.33195 C409.987697,174.67249 423.301278,235.016524 449.577379,267.270943 C475.426397,299.001108 539.01331,266.770126 539.948109,303.783088 C541.833153,378.420548 400.171342,451.128089 345.874614,470.082648 C291.577887,489.037207 40.446278,472.935637 55.66325,359.652811 C70.880222,246.369985 158.086735,346.385591 178.730732,295.289904 C199.37473,244.194217 163.999585,238.484555 192.860233,187.854692 C221.720881,137.22483 319.951945,131.883959 379.812292,160.33195 Z" id="yellow-blob" fill="#F9CB6B" transform="translate(297.483370, 309.995361) rotate(271.000000) translate(-297.483370, -309.995361) "></path>
                    <g id="dots" transform="translate(80.924836, 236.425906)" fill="#5D9595">
                        <circle id="Oval-Copy-10" transform="translate(63.221066, 18.500000) rotate(113.000000) translate(-63.221066, -18.500000) " cx="63.221066" cy="18.5" r="13.5"></circle>
                        <circle id="Oval-Copy-11" transform="translate(18.500000, 34.280566) rotate(113.000000) translate(-18.500000, -34.280566) " cx="18.5" cy="34.2805658" r="13.5"></circle>
                        <circle id="Oval-Copy-13" transform="translate(45.803604, 69.770187) rotate(113.000000) translate(-45.803604, -69.770187) " cx="45.8036045" cy="69.7701866" r="13.5"></circle>
                        <circle id="Oval-Copy-15" transform="translate(92.253034, 60.155070) rotate(113.000000) translate(-92.253034, -60.155070) " cx="92.2530342" cy="60.1550696" r="13.5"></circle>
                    </g>
                </g>
            </g>
        </g>
    </g>
</svg>