<?xml version="1.0" encoding="UTF-8"?>
<svg width="148px" height="121px" viewBox="0 0 148 121" version="1.1" xmlns="http://www.w3.org/2000/svg" xmlns:xlink="http://www.w3.org/1999/xlink">
    <!-- Generator: Sketch 54.1 (76490) - https://sketchapp.com -->
    <title>rain icon</title>
    <desc>Created with Sketch.</desc>
    <g id="Page-1" stroke="none" stroke-width="1" fill="none" fill-rule="evenodd">
        <g id="Extra-large:-Desktops---12-col-Copy" transform="translate(-873.000000, -4810.000000)" fill="#000000" fill-rule="nonzero">
            <g id="footer" transform="translate(-13.000000, 4597.000000)">
                <g id="rain-icon" transform="translate(885.000000, 213.082641)">
                    <g id="Group">
                        <path d="M14.1666667,72.0653243 C6.83666667,71.4619595 2.075,61.4441081 2.08166667,55.1411892 C2.09,45.3111622 11.8083333,37.5605 21.1116667,38.1289595 C21.9166667,38.1788243 21.9116667,36.9305405 21.1116667,36.8823378 C11.6433333,36.3039054 2.125,43.5875 1.03666667,53.3128108 C0.173333333,61.0069595 5.35333333,72.5872432 14.1666667,73.3119459 C14.97,73.3800946 14.965,72.1318108 14.1666667,72.0653243 L14.1666667,72.0653243 Z" id="Path"></path>
                        <path d="M21.4366667,36.2872838 C23.1133333,28.4036486 30.8733333,22.1256622 38.2216667,19.5476486 C43.4583333,17.7092973 48.245,18.8212838 53.4333333,19.9781486 C54.65,20.3637703 55.8566667,20.7743243 57.055,21.2098108 C58.5533333,21.7367162 58.8916667,21.0618784 59.9983333,21.0934595 C59.1916667,21.0701892 59.195,22.3168108 59.9983333,22.3400811 C60.2133333,22.3450676 60.4283333,22.3517162 60.6433333,22.3583649 C61.2466667,22.3749865 61.5216667,21.4740946 60.9583333,21.1965135 C46.6216667,14.1240135 24.0833333,17.8406081 20.2283333,35.9565135 C20.0633333,36.7410541 21.2683333,37.0734865 21.4366667,36.2872838 L21.4366667,36.2872838 Z" id="Path"></path>
                        <path d="M62.27,21.3278243 C68.0216667,4.70454054 86.85,-1.42717568 102.895,3.07728378 C110.821667,5.30291892 117.54,10.8611892 122.828333,16.9347297 C124.22,18.5320676 134.753333,34.0849189 131.628333,36.4136081 C130.991667,36.8889865 131.613333,37.9727162 132.26,37.489027 C135.753333,34.8860811 130.501667,27.2368108 129.208333,24.4377297 C124.636667,14.549527 115.543333,6.97339189 105.685,2.75316216 C88.8766667,-4.44067568 67.105,3.54102703 61.065,20.9937297 C60.8,21.7583243 62.0083333,22.0841081 62.27,21.3278243 L62.27,21.3278243 Z" id="Path"></path>
                        <path d="M15.8333333,73.8671081 C34.965,76.4152027 54.1766667,76.0811081 73.4216667,75.4411757 C83.03,75.1220405 92.635,74.7862838 102.25,74.7281081 C110.435,74.6782432 119.161667,76.2090946 127.271667,75.0439189 C135.94,73.8006216 147.535,69.0933784 148.403333,58.8378378 C149.255,48.7734459 142.54,39.9257568 133.223333,36.9056081 C132.455,36.6562838 132.128333,37.8613514 132.891667,38.1090135 C147.346667,42.7929865 152.645,61.720027 138.278333,70.4081486 C127.963333,76.6462432 113.593333,73.5014324 102.251667,73.4814865 C73.3816667,73.4299595 44.6,76.4534324 15.835,72.6204865 C15.0366667,72.5141081 15.0466667,73.7623919 15.8333333,73.8671081 L15.8333333,73.8671081 Z" id="Path"></path>
                        <path d="M11.3416667,91.9697162 C13.855,101.665108 18.9133333,110.35323 22.4533333,119.672973 C22.7366667,120.417622 23.945,120.095162 23.66,119.342203 C20.1216667,110.027446 15.0583333,101.329351 12.5483333,91.6389459 C12.345,90.8610541 11.14,91.1901622 11.3416667,91.9697162 L11.3416667,91.9697162 Z" id="Path"></path>
                        <path d="M26.405,92.1193108 C31.075,99.9447703 33.815,108.988595 37.165,117.435703 C37.275,117.713284 37.4633333,117.871189 37.7683333,117.892797 C37.865,117.899446 37.96,117.906095 38.0566667,117.912743 C38.8616667,117.969257 38.855,116.722635 38.0566667,116.666122 C37.5916667,116.632878 33.7733333,105.386689 33.365,104.361135 C31.6116667,99.9464324 29.9283333,95.5832568 27.485,91.4893514 C27.0716667,90.7995541 25.9916667,91.4261892 26.405,92.1193108 L26.405,92.1193108 Z" id="Path"></path>
                        <path d="M43.905,91.0106486 C47.1233333,96.9811351 50.1016667,103.009797 52.3766667,109.410784 C53.4516667,112.435919 53.7466667,115.773541 55.0166667,118.713905 C55.335,119.450243 56.4116667,118.815297 56.095,118.083946 C54.3516667,114.048216 53.7566667,109.3925 52.165,105.24873 C50.19,100.112649 47.5916667,95.2175811 44.9833333,90.3806892 C44.6016667,89.6726081 43.5233333,90.3025676 43.905,91.0106486 L43.905,91.0106486 Z" id="Path"></path>
                        <path d="M60.5716667,94.0573919 C65.245,102.037432 67.9633333,110.763784 70.23,119.671311 C70.6316667,119.561608 71.0333333,119.450243 71.4366667,119.340541 C71.31,118.979851 71.2183333,118.610851 71.1583333,118.231878 C70.9916667,117.445676 69.7866667,117.77977 69.9516667,118.562649 C70.0116667,118.941622 70.1033333,119.310622 70.23,119.671311 C70.4666667,120.437568 71.635,120.121757 71.4366667,119.340541 C69.14,110.321649 66.3783333,101.500554 61.65,93.4274324 C61.245,92.735973 60.1633333,93.3626081 60.5716667,94.0573919 L60.5716667,94.0573919 Z" id="Path"></path>
                        <path d="M76.96,91.8417297 C80.425,97.0692297 83.115,102.622514 85.425,108.445068 C86.475,111.094554 86.6716667,114.538554 87.955,117.001878 C88.165,117.405784 88.825,117.41077 89.0333333,117.001878 C89.0716667,116.925419 89.11,116.848959 89.15,116.7725 C89.5133333,116.05777 88.435,115.426149 88.0716667,116.142541 C88.7866667,114.738014 88.4766667,113.744041 88.0333333,111.894054 C87.4666667,109.535446 86.27,107.173514 85.3433333,104.936243 C83.355,100.12927 80.9133333,95.5466892 78.04,91.2101081 C77.5983333,90.5452432 76.515,91.1685541 76.96,91.8417297 L76.96,91.8417297 Z" id="Path"></path>
                        <path d="M93.905,91.5641486 C97.185,97.4681486 99.695,103.722865 101.925,110.085622 C102.583333,111.960541 102.636667,117.212973 104.683333,118.105554 C105.415,118.424689 106.051667,117.350932 105.315,117.030135 C104.345,116.607946 104.086667,113.165608 103.896667,112.269703 C103.363333,109.771473 102.28,107.329757 101.386667,104.944554 C99.5833333,100.132595 97.48,95.4286757 94.9833333,90.9358514 C94.5933333,90.2327568 93.5133333,90.8610541 93.905,91.5641486 L93.905,91.5641486 Z" id="Path"></path>
                        <path d="M110.016667,92.1193108 C114.343333,100.061122 117.893333,108.521527 120.508333,117.17973 C120.74,117.947649 121.946667,117.620203 121.715,116.848959 C119.071667,108.099338 115.47,99.5175946 111.096667,91.4910135 C110.71,90.7829324 109.631667,91.4128919 110.016667,92.1193108 L110.016667,92.1193108 Z" id="Path"></path>
                        <path d="M127.175,91.4162162 C129.69,98.1911892 132.658333,104.783324 134.953333,111.639743 C135.886667,114.427189 136.106667,117.492216 137.175,120.228135 C137.465,120.969459 138.673333,120.647 138.381667,119.897365 C137.323333,117.189703 136.928333,114.114703 136.16,111.308973 C134.263333,104.386068 130.876667,97.8072297 128.381667,91.0854459 C128.103333,90.337473 126.895,90.6599324 127.175,91.4162162 L127.175,91.4162162 Z" id="Path"></path>
                    </g>
                </g>
            </g>
        </g>
    </g>
</svg>